P1
# Created by GIMP version 2.10.30 PNM plug-in
30 30
0000000000000000000000000000000000000000000000000000000000000001111100
0000000000000000000000100000100000000000000000000000100000100000000001
0000000000001000001000000000101000000000001000001000000000101000000000
0001111100000000010001000000000000000000000000010001000000000000000000
0000001111111000000000000000000000000000000000000000000000000000000000
0000000000000000000000000000000000000000000000000000000000000000000000
0000111111111111000000000000000001000000000000100000000000000001000000
0000001000000000000000010000000000001000001110000000010000000000001000
0111110000000100000000000010000111110000000011111111111100000111110000
0000000000000000000000111000000000000000000000000000000000000000000000
0000000000000000000000000000000000000000000000000000000001111110000000
0000000000000000011111100000000000000000000000011111100000000000000000
000000011111100000000000000000000000000000000000000000000000