P1
# Created by GIMP version 2.10.30 PNM plug-in
30 30
0000000000000000000000000000000000000000000000000000000000000000000000
0000000000000000000000011111111000000000000000000000011111111000000000
0000000000000110110110000000000000000000000111111110000000000000000000
0000000000000000000000000000000000000000000000000001000000000000000000
0000000000111000000000000000000000000000111000000000000001110000000001
1111000000000000111110000000111111100000000001110111000000000000000000
0000011111110000000000000000000000001111100000000000000000000000000111
0000000000000000000000000000000000000000000000000000000000000000000000
0000000000000000000000000000000000000000000000000000000000001000000000
0000000000000000001111100000000000000000000000011111110000000000011111
0000000111111100000000000111110000000011111000000000000111110000000011
1110000000000001111100000000000000000000000001111100000000000000000000
000000000000000000000000000000000000000000000000000000000000