P1
 #Desenvolvida pela Generic Stuff
74 74
00000000000000000000000000000000000000000000000000000000000000000000000000
00000000000000000000000000000000000000000000000000000000000000000000000000
00000000000000000000000000000000000000000000000000000000000000000000000000
00000000000000000000000000000000000000000000000000000000000000000000000000
00000000000000000000000000000000000000000000000001111111000000000000000000
00000000000000000000000000000000000000000000011111111111111000000000000000
00000000000000000000000000000011100000000000011111111111111000000000000000
00000000011110000000000000000111110000000000111111100001111111000000000000
00000001111111100000000000001111111000000000111100000000001111000000000000
00000011110011110000000000001111111000000000111100000000001111000000000000
00000011000000110000000000000111110000110000111100000000001111000000000000
00000011000000110000000000000011100001111000111100000000001111000000000000
00000011000000110000000000000000000001111000111100000000001111000000000000
00000011110011110000000000000000000000110000111111100001111111000000000000
00000001111111100000000000000000000000000000011111111111111000000000000000
00000000011110000000000000000000000000000000011111111111111000000000000000
00000000000000000000000000000000000000000000000001111111000000000000000000
00000000000000000000000000000000000000000000000000000000000000000000000000
00000000000000000011000001110000000000000000000000000000000111111000000000
00000000000000000111100011111000000000000000000000000000000111111000000000
00000000000000000111100111111100000000000000000000000000001111111100000000
00000000000000000011000111111100000000000000000000000000111111111110000000
00000000000000000000000011111000000000000000001111000001111100001111100000
00000000000000000000000001110000000000000000111111110001110000000011100000
00000000000000000000110000000000000000000000111111110001110000000011100000
00000000000000000001111000000000000000000011111001111001110000000011100000
00000000000000000001111000000000000000000011100000011001110000000011100000
00000000000000000000110000000000000000000011100000011001110000000011100000
00000000000000000000000000000000000000000011100000011001111100001111100000
00000000111000000000000000000000000000000011111001111000111111111110000000
00000001111100000000000000000000000000000000111111110000000111111000000000
00000011111110000000000111100000000000000000001111000000000000000000000000
00000011111110000000011111111000000000000000001111000000000000000000000000
00000001111100000000111100111100000000000000000000000011110000000000000000
00000000111000000000110000001100000000000000000000001111111100000000000000
00000000000000000000110000001100000000000000000000011110011110000000000000
00001100000111000000110000001100000011110000000000011000000110000000000000
00011110001111000000111100111100000111111000000000011000000110000000000000
00011110011111100000011111111000001111111100000000011000000110000000000000
00001100011111100000000111100000001111111100000000011110011110000000000000
00000000011111000000000000000000001111111100000000001111111100000000000000
00000000000110000000000000000000000111111000000000000011110000000000000000
00000000000000000000000000000000000011110000000000000000000000000000000000
00000000000000111111000000000000000000000000000000000000000000000000000000
00000000000000111111000000000000000000000000000000000000000000000000000000
00000000000111111111110000000000000000001111000000000000000000000000000000
00000000000111111111110000000000000000111111110000000000000000000000000000
00000000001111100001111100000000000001111111111000000000000000000000000000
00000000001110000000011100000000000011111111111000000000000000000000000000
00000000001110000000011100000011100011111111111100000000000000000000000000
00000000001110000000011100000111110011111111111100000000000000000000000000
00000000001110000000011100000111110011111111111100000000000000000011000000
00000000001111100001111100000111110011111111111000000000000000000111100000
00000000000111111111110000000011100001111111111000000000000000000111100000
00000000000000111111000000000000000000111111110000000000000000000011000000
00000000000000111111000000000000000000001111000000000001100000000000000000
00000000000000000000000000000000000000000000000000000011110001110000000000
00000000000000000000000000000000000000000000000000000011110011111000000000
00000000000000000000000000000000000000000000000000000001100011111000000000
00000000000000000000000000000000000000000000000000000000000011111000000000
00000000000000000000000000000000000000000000000000000000000001110000000000
00000000000001110000000000000000000001110000000000000000011100000000000000
00000000000011111000000000000000000011111000000000000000111110000000000000
00000000000111111100000000000000000111111100000000000000111110000000000000
00000000000111111100000000000000000111111100000000000000111110000000000000
00000000000011111000000000000000000011111000000000000000011100000000000000
00000000000001110000000000000000000001110000000000000011000000000000000000
00000000000000000000000000000000000000000000000000000111100000000000000000
00000000000000000000000000000000000000000000000000000111100000000000000000
00000000000000000000000000000000000000000000000000000011000000000000000000
00000000000000000000000000000000000000000000000000000000000000000000000000
00000000000000000000000000000000000000000000000000000000000000000000000000
00000000000000000000000000000000000000000000000000000000000000000000000000
00000000000000000000000000000000000000000000000000000000000000000000000000
