P1
# Created by GIMP version 2.10.30 PNM plug-in
70 70
0000000000000000000000000000000000000000000000000000000000000000000000
0000000000000000000000000000000000000000000000000000000000000000000000
0000000000000000000000000000000000000000000000000000000101111110000000
0000000000000000000000000000000000000000000000000000000001111110000000
0001000000000000000000000000111000000000000000000000000011111111000000
0000000111100000000000000001111100000000000000000000001111111111100000
0000011111111000000000001011111110000000000000000000011111000011111000
0000111100111100000000000011111110000000000000000000011100000000111000
0000110000001100000000000001111100000001000000000000011100000000111000
0000110000001100000000000000111000000000000000000000011100000000111000
0000110000001100000000000000000000000000000000000000011100000000111000
0000111100111100000000000000000000000000000000000000011100000000111000
0000011111111000000000000000000000000000000000000000011111000011111000
0000000111100000000000000000000000000000000000000000001111111111100000
0000000000000000000000000000000000000000000000000000000001111110000000
0000000001000000000000000000000000000000000000000000000000000000000000
0000000000000000110000000000000000000000000000000000000000000000000000
0000000000000001111000000000000000000000000000000000000000000000000000
0000000000000001111000000000000000000000000000000010000000000000000000
0000000000000000110000000000000000000000000000000000000000000000000000
0000000000000000000000000000000000000000000011110000000000000000000000
0000000000000000000000000000000000000000001111111100000000000000000000
0000100000000000000000000000010000000000001111111100000000000000000000
0000000000000000000000000000000000000000111110011110000000000011000000
0000000000000000000000000000011000000000111000000110000000000111100000
0000000000111100000000000000111100000000111000000110000000000111100000
0000000011111111000000000000111100000000111000000110000000000011000000
0000000111100111100000000000011000000000111110011110000000000000000000
0000000110000001100000000000000000000000001111111100000000000000000000
0000000110000001100000000000000000000000000011110000000000000000000000
0000000110000001100000000000000000000000000011110000000000000000000000
0000000111100111100000000000000000000000000000000000000000000000000000
0000000011111111000000000000001000000000000000000000000000000000000000
0000000000111100000000000000000000000000000000000000000010000000000000
0000000000000000000000000001111111000000000000000000000000000000000000
0000000000000000000000011111111111111000000000000000000000000000000000
0000000000000000000000011111111111111000000000000000000000000000000000
0000000000000000000000111111100001111111000000000000000000000000000000
0000000000000000000000111100000000001111000000000000000000000000000000
0000000000000000000000111100000000001111000000000000000000000000000000
0000000111000000000010111100000000001111010000000000000111100000000000
0000001111100000000000111100000000001111000000000000011111111000000000
0000011111110000000000111100000000001111000000000000111100111100000000
0001011111110000000000111111100001111111000000000000110000001100000000
0000001111100000000000011111111111111000000000000000110000001101000000
0000000111000000000000011111111111111000000000000000110000001100000000
0000000000000000000000000001111111000000000000000000111100111100000000
0000000000000000000000000000000000000000000000000000011111111000000000
0000000000000000000000000000001000000000000000000000000111100000000000
0000000000000000000000000000000000000000000000000000000000000000000000
0000000000000000000000000000000000000000000001000000000000000000000000
0000000000000000000000000000000000000000000000000000000000000000000000
0000000000000000000000000000000000000000000000000000000000000000000000
0000000000000000010000000000000000000000000000000000000100000000000000
0000000000000000000000000000011110000000000000000000000000000000000000
0000000000000000000000000001111111100000000000000000001111000000000000
0000000000000000000000000011111111110000000000000000011111100000000000
0000000011100000000000000111111111110000000000000000111111110000000000
0000000111110000000000000111111111111000000000000000111111110000000000
0000000111110000000000000111111111111000000000000000111111110000000000
0000000111110000000000000111111111111000000000000000011111100000000000
0000000011100000000000000111111111110000000000000000001111000000000000
0000000000000000000000000011111111110000000000000000000000000000000000
0000000000000000000000000001111111100000000000000000000000000000000000
0000000000000000000000000000011110000000000000000000000000000000000000
0000000000000000000000000000000000000000000000000000000000000000000000
0000000000000000000000000000000000000000000000000000000000000000000000
0000000000100000000000000000000000000000000000000000000000000000000000
0000000000000000000000000000000000000000000000000000000000000000000000
0000000000000000000000000000000000000000000000000000000000000000000000