P1
# Created by GIMP version 2.10.30 PNM plug-in
30 30
0000000000001000001000000000000000000000001000001000000000000000000000
0011111110000000000000000000000000000000000000000000000000000000000000
0000000000000000000000000000000000000000000000000000000000000000000000
0000000000000000000000000000001000000000000000000000000000000100000000
0111000000000000000000100000001111100000000000000000100000011111110000
0000000000001000000111111100000000000000001000000011111000000000000000
0100000000011100000000000000001000000000000000000000000000000000000000
0000000000000000000000000000000000000000000000000000000000000000000000
0000000000000011110000000000000000000000000011110000000000000000000000
0000111100000000000000011110000000111100000000000000011110000000111100
0000000000000111100000001111000000000000000111100000000000000000000000
0000000000000000000000000000000000000000000000000000000000000000000000
000000000000000000000000000000000000000000000000000000000000