P1
# Created by GIMP version 2.10.30 PNM plug-in
70 70
0000000000000000000000000000000000000000000000000000000000000000000000
0000000000000000000000000000000000000000000000000000000000000000000000
0000000000000000000000000000000000000000000000011111110000000000000000
0000000000000000000000000000000000000000000111111111111110000000000000
0001000000000000000000000000111000000000000111111111111110000000000000
0000000111100000000000000001111100000000001111111000011111110000000000
0000011111111000000000000011111110000000001111000000000011110000000000
0000111100111100000000000011111110000000001111000000000011110000000000
0000110000001100000000000001111100001100001111000000000011110100000000
0000110000001100000000000000111000011110001111000000000011110000000000
0000110000001100000000000000000000011110001111000000000011110000000000
0000111100111100000000000000000000001100001111111000011111110000000000
0000011111111000000000000000000000000000000111111111111110000000000000
0000000111100000000000000000000000000000000111111111111110000000000000
0000000000000000000000000000000000000000000000011111110000000000000000
0000000001000000000000000000000000000000000000000000000000000000000000
0000000000000000110000011100000000000000000000000000000001111110000000
0000000000000001111000111110000000000000000000000000000001111110000000
0000000000000001111001111111000000000000000000000010000011111111000000
0000000000000000110001111111000000000000000000000000001111111111100000
0000000000000000000000111110000000000000000011110000011111000011111000
0000000000000000000000011100000000000000001111111100011100000000111000
0000100000000000001100000000000000000000001111111100011100000000111000
0000000000000000011110000000000000000000111110011110011100000000111000
0000000000000000011110000000000000000000111000000110011100000000111000
0000000000000000001100000000000010000000111000000110011100000000111000
0000000000000000000000000000000000000000111000000110011111000011111000
0000001110000000000000000000000000000000111110011110001111111111100000
0000011111000000000000000000000000000000001111111100000001111110000000
0000111111100000000001111000000000000000000011110000100000000000000000
0000111111100000000111111110000000000000000011110000000000000000000000
0000011111000000001111001111000000000000000000000000111100000000000000
0000001110000000001100000011000000010000000000000011111111000000000000
0000000000000000001100000011000000000000000000000111100111100000000000
0011000001110000001100000011000000111100000000000110000001100000000000
0111100011110000001111001111000001111110000000000110000001100000000000
0111100111111000000111111110000011111111000000000110000001100000000000
0011000111111000000001111000000011111111000000000111100111100000000000
0000000111110001000000000000000011111111000000000011111111000000000000
0000000001100000000000000000000001111110000000000000111100000000000000
0000000000000000000000000000000000111100000000000000000000000000000000
0000000000001111110000000000000000000000000000000000000000000000000000
0000000000001111110000000000000000000000000000000000000000000000000000
0000000001111111111100000000000100000011110000000000000000000000000000
0000000001111111111100000000000000001111111100000000000000000000000000
0000000011111000011111000000000000011111111110000000000000000000000000
0000000011100000000111000000000000111111111110000000000000000000000000
0000000011100000000111000000111000111111111111000000000000000000000000
0000000011100000000111000001111100111111111111000000000000000000000000
0000000011100000000111000001111100111111111111000000000000000000110000
0000000011111000011111000001111100111111111110000000000000000001111000
0000000001111111111100000000111000011111111110000000000000000001111000
0000000000001111110000000000000000001111111100000000000000000000110000
0000000000001111110000000000000000000011110000000000011000000000000000
0000000000000000000000000000000000000000000000000000111100011100000000
0000000000000001000000000000000000000000000000000000111100111110000000
0000000000000000000000000000000000000000000000000000011000111110000000
0000000000000000000000000000000000000000000000000000000010111110000000
0000100000000000000000000000000000000000000000000000000000011100000000
0000000000011100000000000000000000011100000000000000000111000000000000
0000000000111110000000000000000000111110000000000000001111100000000000
0000000001111111000000000000000001111111000000100000001111100000000000
0000000001111111000000000000000001111111000000000000001111100000000000
0000000000111110000000000000000000111110000000000000000111000000000000
0000000000011100000000000000000000011100000000000000110000000000000000
0000000000000000000000000000000000000000000000000001111000000000000000
0000000000000000000000000000000000000000000000000001111000000000000000
0000000000000000000000000000100000000000000000000000110000000000000000
0000000000000000000000000000000000000000000000000000000000000000000000
0000000000000000000000000000000000000000000000000000000000000000000000