P1
# Created by GIMP version 2.10.30 PNM plug-in
70 70
0000000000000000000000000000000000000000000000000000000000000000000000
0000000000000000000000000000100000000100000000000001000010000000000000
0000000000000000000010000000000001000000000000000000000000000000100000
0000000000000000000000000000000000000000010000100000011111100000000000
0000000000000001000000000000111000000000000000000001111111111000000010
0000000000000000000000000001111100000000000000000111111111111110000000
0000000000000000000000001011111110000000000000001111111111111111000000
0000000000000000000000000011111110000000000000001111111111111111000000
0000000000000000001000000001111100000001000100011111111111111111100000
0000000000000000000000000000111000000000000000011111111111111111100010
0000000000000000000000000000000000000000000000111111111111111111110000
0000000000000000000000000000000000000000000000111111111111111111110000
0000000000000010000001000000000000001110000000111111111111111111110000
0000000000000000000000000000000000111111100000111111111111111111110000
0000000000000000000000000100000000111111100000111111111111111111110000
0000000000000000000000000000000001111111110000011111111111111111100000
0000000000000000110000000000000001111111110000011111111111111111100000
0000000000000001111000000000000001111111110000001111111111111111000000
0000000000000001111000000000000000111111100000001111111111111111000010
0000000000000000110000001000000000111111100000000111111111111110000000
0000000000000000000000000000000000001110000000100001111111111000000000
0000000000000000000000000000000000000000000000000000011111100000000000
0000000000000000000000000000010000000000000000000000000000000000000000
0000000000000000000001000000000000000000000000000000000000000011000000
0000000000000000000000000000011000000000000000000000000000000111100000
0000000000000000000000000000111100000001000111110000001000000111100000
0000000000000000000000000000111100000000001111111000000000000011000000
0000000000000000000000000000011000000000011111111100000000000000000000
0000000000000000000000000000000000000000111111111110000000000000000000
0000000000000000000000000000000000000000111111111110000001110000000000
0000000000000000000000000000000000000000111111111110000111111100000000
0000000000000000000000000000000000000000111111111110000111111100001000
0000000000000000000000000000000000000000011111111100001111111110000000
0000000000000000000000000000000000000000001111111000001111111110000000
0000000000000000000000000000000000000000000111110000001111111110000000
0000000000000000000000000000000000000010000000000000000111111100000000
0000000000000000000000000000000000000000000000000000000111111100000000
0000000000000000000000000000000000000000000000000000000001110000000000
0000000000000000000000000000111100000000000000000001000000000000010000
0000000000000000000000000011111111000000000000000000000000000000000000
0000000111000000000000000011111111000000000000000000000000000000000000
0000001111100000000000001111100111100000000000000000000000000000000000
0000011111110000000000001110000001100000000011111100000000000100000010
0000011111110000000000001110000001100000000011111100000000000000000000
0000001111100000000000001110000001100000000111111110000000000000000000
0000000111000000000000001111100111100000011111111111000000000000000000
0000000000000000000000000011111111000000111110000111110000000000000000
0000000000000000000000000000111100000000111000000001110000000000000000
0000000000000000000000000000111100000000111000000001110000000000000000
0000000000000000000000000000000000000000111000000001110000000000000000
0000000000000000000000000000000000000000111000000001110000000000000000
0000000000000000000000000000000000000000111000000001110000000000000000
0000000000000000000000000000000000000000111110000111110000000000000000
0000000000000000000000000000000000000000011111111111000000000000000000
0000000000011111110000000000000000000000000011111100000000000000000000
0000000111111111111110000000000000000000000000000000000000000000000000
0000000111111111111110000000000000000000000000000000000000000000000000
0000001111111000011111110000000011110000000000000000000000000000000000
0000001111000000000011110000001111111100000000000000000000000000000000
0000001111000000000011110000011110011110000000000000000000000000000000
0000001111000000000011110000011000000110000000000000000000000000000000
0000001111000000000011110000011000000110000000000000000000000000000000
0000001111000000000011110000011000000110000000000000000000000000000000
0000001111111000011111110000011110011110000000000000000000000000000000
0000000111111111111110000000001111111100000000000000000000000000000000
0000000111111111111110000000000011110000000000000000000000000000000000
0000000000011111110000000000000000000000000000000000000000000000000000
0000000000000000000000000000000000000000000000000000000000000000000000
0000000000000000000000000000000000000000000000000000000000000000000000
0000000000000000000000000000000000000000000000000000000000000000000000